<mxfile host="app.diagrams.net" modified="2024-06-27T21:03:40.916Z" agent="Mozilla/5.0 (Windows NT 10.0; Win64; x64; rv:127.0) Gecko/20100101 Firefox/127.0" etag="v-WJ5bmUFq8jfWpj3TBo" version="24.6.3" type="github">
  <diagram name="Page-1" id="GISTRxogogpx8yDHISPY">
    <mxGraphModel dx="1434" dy="746" grid="1" gridSize="10" guides="1" tooltips="1" connect="1" arrows="1" fold="1" page="1" pageScale="1" pageWidth="850" pageHeight="1100" math="0" shadow="0">
      <root>
        <mxCell id="0" />
        <mxCell id="1" parent="0" />
        <mxCell id="0d2JCtyAeMgKGs7tMCEY-2" value="" style="edgeStyle=orthogonalEdgeStyle;rounded=0;orthogonalLoop=1;jettySize=auto;html=1;" parent="1" source="qLUTxdZjefEvBJyTX5au-2" target="0d2JCtyAeMgKGs7tMCEY-1" edge="1">
          <mxGeometry relative="1" as="geometry" />
        </mxCell>
        <mxCell id="qLUTxdZjefEvBJyTX5au-2" value="Csv Creation QueueMessage" style="shape=tape;whiteSpace=wrap;html=1;strokeWidth=2;size=0.19" parent="1" vertex="1">
          <mxGeometry x="60" y="60" width="120" height="70" as="geometry" />
        </mxCell>
        <mxCell id="qLUTxdZjefEvBJyTX5au-15" value="" style="edgeStyle=orthogonalEdgeStyle;rounded=0;orthogonalLoop=1;jettySize=auto;html=1;" parent="1" source="qLUTxdZjefEvBJyTX5au-6" target="qLUTxdZjefEvBJyTX5au-14" edge="1">
          <mxGeometry relative="1" as="geometry" />
        </mxCell>
        <mxCell id="qLUTxdZjefEvBJyTX5au-6" value="Pull Data Series Into Memory" style="whiteSpace=wrap;html=1;strokeWidth=2;" parent="1" vertex="1">
          <mxGeometry x="460" y="65" width="120" height="60" as="geometry" />
        </mxCell>
        <mxCell id="qLUTxdZjefEvBJyTX5au-11" value="" style="edgeStyle=orthogonalEdgeStyle;rounded=0;orthogonalLoop=1;jettySize=auto;html=1;" parent="1" source="qLUTxdZjefEvBJyTX5au-8" edge="1">
          <mxGeometry relative="1" as="geometry">
            <mxPoint x="230" y="510" as="targetPoint" />
          </mxGeometry>
        </mxCell>
        <mxCell id="qLUTxdZjefEvBJyTX5au-8" value="DS Pipeline" style="whiteSpace=wrap;html=1;strokeWidth=2;" parent="1" vertex="1">
          <mxGeometry x="60" y="480" width="120" height="60" as="geometry" />
        </mxCell>
        <mxCell id="qLUTxdZjefEvBJyTX5au-12" value="Create Summary Statistics" style="whiteSpace=wrap;html=1;strokeWidth=2;" parent="1" vertex="1">
          <mxGeometry x="230" y="480" width="120" height="60" as="geometry" />
        </mxCell>
        <mxCell id="qLUTxdZjefEvBJyTX5au-18" value="" style="edgeStyle=orthogonalEdgeStyle;rounded=0;orthogonalLoop=1;jettySize=auto;html=1;exitX=0.75;exitY=1;exitDx=0;exitDy=0;" parent="1" source="qLUTxdZjefEvBJyTX5au-14" target="qLUTxdZjefEvBJyTX5au-16" edge="1">
          <mxGeometry relative="1" as="geometry" />
        </mxCell>
        <mxCell id="qLUTxdZjefEvBJyTX5au-21" value="" style="edgeStyle=orthogonalEdgeStyle;rounded=0;orthogonalLoop=1;jettySize=auto;html=1;" parent="1" source="qLUTxdZjefEvBJyTX5au-14" target="qLUTxdZjefEvBJyTX5au-20" edge="1">
          <mxGeometry relative="1" as="geometry" />
        </mxCell>
        <mxCell id="qLUTxdZjefEvBJyTX5au-14" value="Calculate Custom Alert Results" style="whiteSpace=wrap;html=1;strokeWidth=2;" parent="1" vertex="1">
          <mxGeometry x="660" y="65" width="120" height="60" as="geometry" />
        </mxCell>
        <mxCell id="qLUTxdZjefEvBJyTX5au-16" value="Send Alert " style="whiteSpace=wrap;html=1;strokeWidth=2;" parent="1" vertex="1">
          <mxGeometry x="720" y="260" width="120" height="60" as="geometry" />
        </mxCell>
        <mxCell id="qLUTxdZjefEvBJyTX5au-20" value="Store Results to Cosmos" style="whiteSpace=wrap;html=1;strokeWidth=2;" parent="1" vertex="1">
          <mxGeometry x="580" y="260" width="120" height="60" as="geometry" />
        </mxCell>
        <mxCell id="0d2JCtyAeMgKGs7tMCEY-1" value="Store Data in SQL" style="whiteSpace=wrap;html=1;strokeWidth=2;" parent="1" vertex="1">
          <mxGeometry x="260" y="65" width="120" height="60" as="geometry" />
        </mxCell>
        <mxCell id="0d2JCtyAeMgKGs7tMCEY-3" value="Calculate Custom Alert QueueMessage" style="shape=tape;whiteSpace=wrap;html=1;strokeWidth=2;size=0.19;" parent="1" vertex="1">
          <mxGeometry x="260" y="180" width="120" height="70" as="geometry" />
        </mxCell>
        <mxCell id="0d2JCtyAeMgKGs7tMCEY-7" style="edgeStyle=orthogonalEdgeStyle;rounded=0;orthogonalLoop=1;jettySize=auto;html=1;entryX=0.5;entryY=1;entryDx=0;entryDy=0;" parent="1" source="0d2JCtyAeMgKGs7tMCEY-5" target="qLUTxdZjefEvBJyTX5au-6" edge="1">
          <mxGeometry relative="1" as="geometry" />
        </mxCell>
        <mxCell id="0d2JCtyAeMgKGs7tMCEY-5" value="Trigger Custom Alert Calc" style="whiteSpace=wrap;html=1;strokeWidth=2;" parent="1" vertex="1">
          <mxGeometry x="460" y="185" width="120" height="60" as="geometry" />
        </mxCell>
        <mxCell id="0d2JCtyAeMgKGs7tMCEY-12" value="" style="edgeStyle=orthogonalEdgeStyle;rounded=0;orthogonalLoop=1;jettySize=auto;html=1;" parent="1" source="0d2JCtyAeMgKGs7tMCEY-10" target="0d2JCtyAeMgKGs7tMCEY-11" edge="1">
          <mxGeometry relative="1" as="geometry" />
        </mxCell>
        <mxCell id="r-Cp29KPHS8qP45SvQlq-2" style="edgeStyle=orthogonalEdgeStyle;rounded=0;orthogonalLoop=1;jettySize=auto;html=1;entryX=0;entryY=0.5;entryDx=0;entryDy=0;" edge="1" parent="1" source="0d2JCtyAeMgKGs7tMCEY-10" target="qLUTxdZjefEvBJyTX5au-6">
          <mxGeometry relative="1" as="geometry">
            <Array as="points">
              <mxPoint x="410" y="380" />
              <mxPoint x="410" y="95" />
            </Array>
          </mxGeometry>
        </mxCell>
        <mxCell id="0d2JCtyAeMgKGs7tMCEY-10" value="SQL Warehouse" style="rounded=1;whiteSpace=wrap;html=1;" parent="1" vertex="1">
          <mxGeometry x="60" y="350" width="120" height="60" as="geometry" />
        </mxCell>
        <mxCell id="0d2JCtyAeMgKGs7tMCEY-11" value="Full Flight Plotting" style="whiteSpace=wrap;html=1;rounded=1;" parent="1" vertex="1">
          <mxGeometry x="720" y="350" width="120" height="60" as="geometry" />
        </mxCell>
        <mxCell id="r-Cp29KPHS8qP45SvQlq-1" style="edgeStyle=orthogonalEdgeStyle;rounded=0;orthogonalLoop=1;jettySize=auto;html=1;entryX=0.5;entryY=0.043;entryDx=0;entryDy=0;entryPerimeter=0;" edge="1" parent="1" source="0d2JCtyAeMgKGs7tMCEY-1" target="0d2JCtyAeMgKGs7tMCEY-3">
          <mxGeometry relative="1" as="geometry" />
        </mxCell>
      </root>
    </mxGraphModel>
  </diagram>
</mxfile>
